<?xml version="1.0" encoding="UTF-8"?>
<!-- Generator: Adobe Illustrator 15.0.0, SVG Export Plug-In . SVG Version: 6.00 Build 0)  -->
<svg version="1.2" baseProfile="tiny" id="Layer_1" xmlns="http://www.w3.org/2000/svg" xmlns:xlink="http://www.w3.org/1999/xlink" x="0px" y="0px" width="300px" height="54.545px" viewBox="0 0 300 54.545" xml:space="preserve">
<g>
	<polygon fill="#231F20" points="300,54.545 0,54.545 0,0 300,0  "/>
	<polygon fill="#FFFFFF" points="299.021,53.567 0.979,53.567 0.979,0.98 299.021,0.98 299.021,53.229  "/>
	<polygon fill="#231F20" points="150.002,51.315 3.23,51.315 3.23,3.231 150.002,3.231  "/>
	<path fill="#FFFFFF" d="M95.964,22.193l-0.114,0.121L83.307,35.388h6.02v-0.721l-0.558-0.042c-0.009-0.002-0.017-0.006-0.025-0.006   c1.167-1.205,9.214-9.56,9.579-9.939l0.096-0.1l-2.35-2.496L95.964,22.193L95.964,22.193z M33.16,19.232h-6.799   c-1.653,0-2.931,0.054-3.801,0.166c-0.009,0-1.348,0.231-1.348,0.231c-1.151,0.259-2.29,0.699-3.388,1.313   c-1.747,0.981-3,2.238-3.722,3.731c-0.402,0.848-0.609,1.802-0.609,2.839c0,2.609,1.41,4.693,4.186,6.195   c1.256,0.683,2.661,1.151,4.172,1.401c1.129,0.183,2.691,0.275,4.643,0.275h10.734l2.716-3.291h-1l-0.713,0.42l-0.326,0.146   c0,0,0.024,0.003,0.039,0.007c-0.408-0.021-2.283-0.017-11.458,0.013c-2.613,0-4.595-0.334-5.887-1   c-1.722-0.881-2.677-2.156-2.854-3.791c0.058,0,15.267,0,15.267,0c0.159,0.018,0.235,0.047,0.275,0.065   c-0.011,0.067-0.025,0.18-0.025,0.18l-0.045,0.341h0.684l2.653-3.294H19.537c0,0-1.751,2.592-1.794,2.654   c-0.017-0.169-0.033-0.337-0.033-0.513c0-0.882,0.253-1.71,0.748-2.46c0.954-1.403,2.452-2.308,4.448-2.676   c0.003,0,1.357-0.194,1.357-0.194c0.003,0,2.095-0.054,2.095-0.054h3.56c0.157,0.019,0.233,0.05,0.271,0.072   c-0.008,0.053-0.018,0.128-0.018,0.128l-0.03,0.175l-0.029,0.171h0.656l2.701-3.25H33.16L33.16,19.232z M58.904,19.221H34.758   l-2.461,3.073l0.725,0.242l0.755-0.382c0.212-0.136,0.392-0.197,0.579-0.197c0,0,8.865,0,9.148,0c0,0.284,0,12.248,0,12.269   c-0.005,0.019-0.012,0.028-0.019,0.051c0,0-0.007,0.023-0.013,0.045c-0.027,0.025-0.063,0.066-0.08,0.084   c-0.048,0.029-0.172,0.107-0.498,0.318l-0.069,0.043v0.616H48.2v-0.622c0,0-0.569-0.347-0.591-0.359   c-0.017-0.018-0.041-0.039-0.07-0.065c-0.004-0.051-0.009-0.108-0.009-0.108s0-11.987,0-12.271c0.283,0,8.114,0,8.114,0   c0.154,0.015,0.224,0.045,0.248,0.063c0,0.068,0,0.492,0,0.492h0.611l2.709-3.29L58.904,19.221L58.904,19.221z M65.263,19.221   H60.07v0.619l0.563,0.364c0.12,0.08,0.131,0.126,0.131,0.127c0,0,0,13.822,0,13.867c-0.006,0.019-0.028,0.084-0.038,0.115   c-0.026,0.025-0.085,0.082-0.093,0.09c-0.053,0.035-0.428,0.273-0.428,0.273l-0.135,0.088v0.616h5.338v-0.61l-0.522-0.365   l0.064,0.117c0,0-0.103-0.141-0.116-0.162c0-0.118-0.049-13.989-0.049-14.012c0.005-0.02,0.017-0.033,0.022-0.054   c0,0,0.002-0.013,0.007-0.023c0.012-0.012,0.026-0.025,0.026-0.025s0.021-0.031,0.036-0.055c0.062-0.03,0.168-0.101,0.406-0.272   c0.001-0.001,0.125-0.091,0.125-0.091v-0.607H65.263L65.263,19.221z M88.388,19.221h-5.241v0.623l0.588,0.364   c0.034,0.021,0.117,0.074,0.117,0.121c0,0,0,4.312,0,4.587c-0.283,0-10.466,0-10.466,0s-1.634,2.062-2.039,2.574   c-0.002-0.729-0.026-7.138-0.026-7.149c0.01-0.029,0.014-0.035,0.023-0.063c0.024-0.019,0.055-0.044,0.084-0.069   c0.041-0.022,0.139-0.081,0.448-0.281l0.141-0.083v-0.623h-5.372v0.616c0,0,0.53,0.346,0.55,0.36   c0.01,0.008,0.03,0.026,0.055,0.054c0.005,0.977,0.048,13.444,0.05,13.946c-0.005,0.025-0.025,0.096-0.04,0.145   c-0.024,0.021-0.05,0.049-0.081,0.081l0.004,0.003c-0.083,0.045-0.202,0.122-0.401,0.252l-0.136,0.088v0.615h5.372v-0.621   l-0.581-0.361c0,0-0.041-0.037-0.065-0.058c0-0.134-0.021-6.028-0.021-6.174c0.119,0.043,0.307,0.103,0.307,0.103l0.763-0.451   c0,0-0.007,0-0.008,0.002c0.046-0.018,0.129-0.058,0.308-0.139C72.76,27.674,73,27.648,73,27.648s10.563,0,10.85,0   c0,0.279-0.027,6.167-0.027,6.167l4.107-4.387c0,0-0.053-9.091-0.053-9.097c0,0,0.006-0.04,0.013-0.074   c0.036-0.035,0.075-0.07,0.091-0.086c0.071-0.038,0.19-0.108,0.412-0.242c-0.005,0,0.066-0.041,0.066-0.041l0.076-0.041v-0.629   h-0.147V19.221z M112.933,19.204h-0.298v0.617c0,0,0.532,0.34,0.554,0.356c0.007,0.008,0.023,0.024,0.05,0.049   c0,0.117,0.01,1.685,0.01,1.685h7.165l6.385,0.002c2.683,0,4.657,0.351,5.858,1.044c1.861,1.081,2.802,2.541,2.802,4.343   c0,0.928-0.24,1.768-0.72,2.495c-0.483,0.731-1.224,1.358-2.201,1.868c-1.284,0.663-3.254,0.998-5.855,0.998c0,0-6.625,0-6.904,0   c0-0.284,0-10.31,0-10.31h-4.06c0,0,0.034,11.815,0.034,11.859c-0.008,0.031-0.021,0.07-0.037,0.124   c-0.025,0.022-0.045,0.044-0.066,0.067c-0.028,0.015-0.552,0.351-0.552,0.351v0.616H126.7c2.221,0,3.967-0.126,5.188-0.375   c1.671-0.348,3.165-0.956,4.434-1.807c1.292-0.867,2.221-1.875,2.76-2.994c0.395-0.824,0.595-1.728,0.595-2.679   c0-0.693-0.102-1.363-0.3-1.99c-0.605-1.937-2.01-3.522-4.172-4.715c-1.927-1.064-4.752-1.605-8.388-1.605L112.933,19.204   L112.933,19.204z M98.775,19.268l-0.112,0.115l-2.143,2.232l2.53,2.68c0,0-0.007-0.015-0.015-0.026   c0.064,0.082,0.408,0.427,2.395,2.411c-0.595,0-4.107,0-4.107,0l-2.46,2.696l0.652,0.333c0,0,0.61-0.323,0.612-0.326   c0,0.003,0.078-0.026,0.117-0.041c0.047,0,0.654-0.005,0.654-0.005s6.94,0,7.062,0c0.364,0.385,3.35,3.527,4.96,5.223l0.015,0.017   c0,0,0.004,0.002,0.007,0.004c0,0.001,0.003,0.015,0.008,0.021c-0.06,0.021-0.177,0.043-0.387,0.043h-0.3v0.742h6.087   L98.882,19.159L98.775,19.268L98.775,19.268z"/>
	<path fill="#231F20" d="M174.914,20.549c-0.736,0-1.336,0.208-1.798,0.625c-0.466,0.418-0.695,0.906-0.695,1.464   c0,0.571,0.181,1.04,0.54,1.402c0.359,0.365,0.811,0.694,1.354,0.99c0.545,0.292,1.125,0.575,1.752,0.846   c0.621,0.271,1.205,0.604,1.748,0.998c0.543,0.395,0.994,0.875,1.352,1.439c0.361,0.565,0.541,1.289,0.541,2.172   c0,0.773-0.15,1.482-0.451,2.123c-0.308,0.645-0.738,1.193-1.298,1.649c-0.56,0.455-1.228,0.806-2.001,1.044   c-0.773,0.24-1.643,0.36-2.6,0.36c-0.864,0-1.635-0.089-2.313-0.267c-0.683-0.179-1.192-0.398-1.548-0.662   c0.16-0.541,0.297-1.039,0.406-1.487c0.115-0.449,0.209-0.935,0.291-1.462h0.455c0.064,0.341,0.184,0.66,0.357,0.964   c0.174,0.301,0.398,0.569,0.674,0.8c0.271,0.232,0.598,0.415,0.981,0.549c0.383,0.131,0.815,0.193,1.294,0.193   c0.959,0,1.667-0.23,2.119-0.697c0.455-0.464,0.685-1.02,0.685-1.669c0-0.586-0.175-1.069-0.528-1.44   c-0.352-0.371-0.791-0.699-1.315-0.986c-0.526-0.287-1.103-0.564-1.728-0.836c-0.621-0.27-1.195-0.602-1.723-0.987   c-0.531-0.385-0.97-0.862-1.318-1.428c-0.354-0.564-0.527-1.288-0.527-2.169c0-0.804,0.145-1.517,0.443-2.135   c0.293-0.619,0.689-1.138,1.185-1.556c0.497-0.42,1.067-0.737,1.715-0.954c0.646-0.217,1.329-0.325,2.049-0.325   c0.86,0,1.617,0.102,2.267,0.301c0.646,0.205,1.201,0.481,1.662,0.837c-0.143,0.356-0.267,0.7-0.369,1.033   c-0.104,0.333-0.235,0.755-0.394,1.265h-0.362C177.3,21.215,176.335,20.549,174.914,20.549L174.914,20.549z"/>
	<path fill="#231F20" d="M186.557,21.964c-0.009-0.372-0.029-0.641-0.059-0.813c-0.24,0-0.539,0.008-0.889,0.023   c-0.352,0.017-0.728,0.037-1.127,0.058c-0.4,0.024-0.809,0.054-1.224,0.093c-0.416,0.038-0.8,0.081-1.149,0.127   c0.033-0.169,0.06-0.34,0.084-0.511c0.022-0.169,0.037-0.339,0.037-0.511c0-0.169-0.015-0.337-0.037-0.51   c-0.024-0.169-0.051-0.34-0.084-0.512c0.545,0.018,1.033,0.032,1.473,0.049c0.439,0.015,0.889,0.026,1.344,0.033   c0.455,0.009,0.95,0.018,1.484,0.024c0.537,0.007,1.181,0.011,1.932,0.011c0.75,0,1.395-0.004,1.93-0.011   c0.539-0.006,1.026-0.015,1.476-0.024c0.446-0.007,0.882-0.018,1.306-0.033c0.424-0.017,0.885-0.031,1.379-0.049   c-0.033,0.171-0.062,0.343-0.084,0.512c-0.025,0.173-0.039,0.341-0.039,0.51c0,0.171,0.014,0.342,0.039,0.511   c0.022,0.171,0.051,0.342,0.084,0.511c-0.32-0.046-0.679-0.089-1.076-0.127c-0.4-0.039-0.799-0.069-1.187-0.093   c-0.392-0.021-0.767-0.042-1.118-0.058c-0.352-0.015-0.648-0.023-0.888-0.023c-0.013,0.079-0.026,0.187-0.034,0.326   c-0.012,0.138-0.014,0.3-0.014,0.487v1.23V29c0,1.284,0.017,2.427,0.048,3.423c0.032,1,0.081,1.979,0.147,2.938   c-0.276-0.031-0.572-0.047-0.892-0.047c-0.317,0-0.678,0-1.077,0c-0.398,0-0.76,0-1.078,0c-0.322,0-0.613,0.016-0.888,0.047   c0.063-0.959,0.112-1.938,0.144-2.938c0.033-0.996,0.051-2.139,0.051-3.423v-5.805C186.568,22.747,186.563,22.335,186.557,21.964   L186.557,21.964z"/>
	<path fill="#231F20" d="M201.626,23.776c-0.42,0.928-0.81,1.844-1.175,2.75c-0.372,0.905-0.725,1.831-1.079,2.776h4.388   c-0.354-0.947-0.699-1.871-1.045-2.776C202.371,25.62,202.009,24.704,201.626,23.776L201.626,23.776z M210.109,35.36   c-0.385-0.032-0.748-0.049-1.088-0.049c-0.348,0-0.684,0-1.021,0c-0.333,0-0.676,0-1.02,0c-0.342,0-0.682,0.017-1.018,0.049   c-0.257-0.758-0.521-1.532-0.793-2.321c-0.27-0.791-0.561-1.579-0.861-2.369c-0.514-0.017-1.024-0.026-1.535-0.036   c-0.51-0.008-1.021-0.011-1.533-0.011c-0.415,0-0.83,0.002-1.246,0.011c-0.412,0.01-0.832,0.02-1.244,0.036   c-0.32,0.79-0.617,1.578-0.889,2.369c-0.271,0.789-0.521,1.563-0.741,2.321c-0.19-0.032-0.382-0.049-0.563-0.049   c-0.184,0-0.373,0-0.564,0c-0.19,0-0.381,0-0.574,0c-0.188,0-0.396,0.017-0.622,0.049c0.19-0.402,0.446-0.959,0.767-1.672   c0.319-0.711,0.67-1.517,1.053-2.416c0.384-0.897,0.796-1.858,1.238-2.889c0.438-1.03,0.877-2.071,1.314-3.125   c0.439-1.052,0.872-2.088,1.299-3.11c0.422-1.021,0.809-1.973,1.16-2.855c0.157,0.031,0.313,0.057,0.452,0.082   c0.147,0.022,0.3,0.032,0.457,0.032c0.159,0,0.312-0.01,0.452-0.032c0.146-0.025,0.297-0.051,0.459-0.082   c0.51,1.315,1.06,2.724,1.642,4.225c0.583,1.501,1.172,2.975,1.765,4.419c0.59,1.451,1.164,2.824,1.724,4.125   C209.135,33.362,209.646,34.464,210.109,35.36L210.109,35.36z"/>
	<path fill="#231F20" d="M217.279,30.694v1.392c0,0.449,0.006,0.86,0.013,1.229c0.007,0.373,0.015,0.611,0.015,0.72   c0.242,0.019,0.526,0.032,0.862,0.046c0.335,0.016,0.752,0.023,1.246,0.023c1.806,0,3.233-0.596,4.292-1.787   c1.052-1.19,1.58-2.996,1.58-5.408c0-0.959-0.137-1.818-0.398-2.579c-0.264-0.757-0.635-1.403-1.111-1.937   c-0.478-0.534-1.055-0.943-1.725-1.231c-0.67-0.284-1.423-0.429-2.257-0.429c-0.571,0-1.041,0.013-1.399,0.034   c-0.362,0.023-0.727,0.05-1.09,0.083c0,0.108-0.008,0.348-0.015,0.718c-0.007,0.374-0.012,0.791-0.012,1.255v1.393v1.161v4.132   L217.279,30.694L217.279,30.694z M213.686,22.416c-0.033-0.997-0.078-1.999-0.142-3.006c0.271,0.032,0.563,0.06,0.886,0.082   c0.32,0.024,0.676,0.035,1.078,0.035c0.526,0,1.117-0.017,1.771-0.057c0.654-0.038,1.507-0.06,2.563-0.06   c1.378,0,2.623,0.121,3.755,0.359c1.125,0.242,2.096,0.648,2.91,1.22c0.815,0.572,1.446,1.344,1.895,2.31   c0.447,0.968,0.673,2.187,0.673,3.658c0,1.282-0.22,2.444-0.66,3.481c-0.44,1.039-1.041,1.924-1.798,2.66   c-0.756,0.734-1.639,1.295-2.639,1.685c-0.998,0.385-2.062,0.579-3.199,0.579c-1.197,0-2.221-0.01-3.066-0.024   c-0.846-0.017-1.583-0.024-2.205-0.024c-0.402,0-0.758,0-1.078,0c-0.322,0-0.615,0.017-0.886,0.049   c0.063-0.959,0.106-1.938,0.142-2.938c0.033-0.997,0.047-2.139,0.047-3.423V25.84C213.732,24.556,213.719,23.417,213.686,22.416   L213.686,22.416z"/>
	<path fill="#231F20" d="M233.583,22.416c-0.034-0.997-0.081-1.999-0.142-3.006c0.27,0.032,0.564,0.06,0.884,0.082   c0.319,0.024,0.68,0.035,1.079,0.035c0.4,0,0.758-0.011,1.08-0.035c0.317-0.022,0.615-0.05,0.886-0.082   c-0.063,1.008-0.111,2.009-0.144,3.006c-0.031,1.001-0.047,2.141-0.047,3.425V29c0,1.284,0.016,2.427,0.047,3.423   c0.031,1,0.08,1.979,0.144,2.938c-0.271-0.031-0.567-0.047-0.886-0.047c-0.322,0-0.68,0-1.08,0c-0.399,0-0.76,0-1.079,0   c-0.318,0-0.614,0.016-0.884,0.047c0.061-0.959,0.106-1.938,0.142-2.938c0.035-0.996,0.054-2.139,0.054-3.423v-3.16   C233.637,24.556,233.618,23.417,233.583,22.416L233.583,22.416z"/>
	<path fill="#231F20" d="M247.119,35.349c-0.887-0.211-1.663-0.557-2.313-1.045c-0.658-0.488-1.173-1.113-1.549-1.881   c-0.371-0.766-0.563-1.697-0.563-2.795c0-0.62,0.007-1.173,0.014-1.661c0.008-0.49,0.01-0.941,0.01-1.358   c0-0.418,0.006-0.82,0.018-1.208c0.002-0.388,0.007-0.79,0.007-1.208c0-1.252-0.005-2.267-0.022-3.041   c-0.015-0.775-0.044-1.355-0.072-1.742c0.319,0.032,0.648,0.06,0.985,0.082c0.337,0.024,0.66,0.035,0.979,0.035   c0.32,0,0.648-0.011,0.984-0.035c0.334-0.022,0.661-0.05,0.98-0.082c-0.16,1.503-0.255,2.899-0.288,4.192   c-0.031,1.292-0.046,2.605-0.046,3.935c0,1.407,0.102,2.545,0.313,3.413c0.207,0.865,0.516,1.537,0.918,2.009   c0.414,0.47,0.909,0.784,1.5,0.938c0.592,0.156,1.279,0.232,2.063,0.232c0.962,0,1.708-0.232,2.255-0.697   c0.544-0.463,0.954-1.082,1.233-1.855c0.277-0.775,0.451-1.662,0.514-2.66c0.066-0.997,0.1-2.039,0.1-3.124   c0-1.067-0.017-2.13-0.048-3.191c-0.032-1.06-0.081-2.124-0.146-3.193c0.228,0.032,0.439,0.06,0.646,0.082   c0.209,0.024,0.399,0.035,0.579,0.035c0.202,0,0.404-0.011,0.599-0.035c0.188-0.022,0.393-0.05,0.6-0.082   c-0.035,0.343-0.064,0.799-0.098,1.37c-0.032,0.575-0.064,1.235-0.096,1.986c-0.033,0.751-0.063,1.58-0.085,2.483   c-0.024,0.908-0.034,1.86-0.034,2.868c0,2.691-0.601,4.623-1.801,5.794c-1.195,1.166-2.956,1.751-5.271,1.751   C248.958,35.662,248.006,35.558,247.119,35.349L247.119,35.349z"/>
	<path fill="#231F20" d="M263.674,30.161c-0.129,1.732-0.258,3.466-0.384,5.199c-0.194-0.031-0.384-0.047-0.578-0.047   c-0.19,0-0.372,0-0.551,0c-0.188,0-0.377,0-0.56,0c-0.187,0-0.375,0.016-0.567,0.047c0.513-2.662,0.965-5.307,1.366-7.94   c0.4-2.632,0.769-5.3,1.105-8.01c0.174,0.032,0.34,0.06,0.489,0.082c0.149,0.024,0.313,0.035,0.489,0.035   c0.146,0,0.299-0.011,0.457-0.035c0.158-0.022,0.328-0.05,0.506-0.082c0.43,0.929,0.882,1.875,1.352,2.833   c0.473,0.961,0.943,1.916,1.415,2.869c0.472,0.951,0.941,1.884,1.412,2.798c0.476,0.911,0.925,1.778,1.358,2.597   c0.953-1.73,1.91-3.547,2.863-5.442c0.949-1.897,1.855-3.781,2.719-5.655c0.402,0.08,0.746,0.117,1.031,0.117   c0.273,0,0.604-0.037,1.01-0.117c0.154,1.333,0.33,2.763,0.515,4.296c0.187,1.532,0.36,3.027,0.536,4.492   c0.177,1.462,0.355,2.83,0.525,4.099c0.18,1.269,0.34,2.29,0.479,3.063c-0.315-0.031-0.644-0.047-0.97-0.047   c-0.328,0-0.652,0-0.971,0c-0.32,0-0.647,0-0.982,0c-0.334,0-0.672,0.016-1.008,0.047c-0.077-1.594-0.209-3.319-0.395-5.176   c-0.184-1.857-0.371-3.7-0.563-5.526h-0.051c-0.908,1.827-1.806,3.62-2.683,5.387c-0.881,1.765-1.751,3.537-2.616,5.315   c-0.078-0.016-0.154-0.026-0.228-0.034c-0.069-0.009-0.147-0.013-0.228-0.013s-0.152,0.004-0.227,0.013   c-0.068,0.008-0.146,0.021-0.225,0.034c-0.866-1.732-1.729-3.465-2.58-5.199c-0.856-1.732-1.738-3.491-2.65-5.27h-0.048   C263.991,26.669,263.8,28.427,263.674,30.161L263.674,30.161z"/>
</g>
</svg>